<?xml version="1.0" encoding="UTF-8"?>
<svg version="1.1" xmlns="http://www.w3.org/2000/svg" width="256" height="256">
<path d="M0 0 C1.2065625 0.0309375 1.2065625 0.0309375 2.4375 0.0625 C4.38898399 12.02394893 5.90012266 24.04230425 7.4375 36.0625 C7.9325 35.0725 7.9325 35.0725 8.4375 34.0625 C10.4175 34.0625 12.3975 34.0625 14.4375 34.0625 C14.49357422 35.63837891 14.49357422 35.63837891 14.55078125 37.24609375 C14.90679674 50.3708537 14.90679674 50.3708537 20.6875 61.8125 C22.4375 64.0625 22.4375 64.0625 22.6875 66.5 C20.70676836 70.56049987 17.13727296 72.61003091 13.4375 75.0625 C16.83384558 78.59510871 16.83384558 78.59510871 20.75 81.5 C22.4375 83.0625 22.4375 83.0625 22.7421875 85.8125 C22.02900962 93.41973074 15.91908014 100.05076959 10.4375 105.0625 C9.7775 106.0525 9.1175 107.0425 8.4375 108.0625 C12.30743807 107.50592464 13.93306236 105.80684704 16.625 103.0625 C25.90497755 94.51622492 37.40735232 89.475534 49.25 85.4375 C50.00861328 85.17751221 50.76722656 84.91752441 51.54882812 84.6496582 C55.27661188 83.46005662 57.70705293 82.88826227 61.4375 84.0625 C61.4375 86.3125 61.4375 86.3125 60.4375 89.0625 C57.91082213 90.73448768 55.23813432 91.92055571 52.4375 93.0625 C53.9225 93.5575 53.9225 93.5575 55.4375 94.0625 C55.9375 96.625 55.9375 96.625 55.4375 100.0625 C53.83203125 101.6328125 53.83203125 101.6328125 51.75 103.25 C45.91055842 107.89054738 43.91335768 114.00103119 41.4296875 120.8359375 C40.4375 123.0625 40.4375 123.0625 38.4375 124.0625 C39.200625 124.8875 39.96375 125.7125 40.75 126.5625 C45.22585032 131.9920116 47.00764986 137.75948461 46.71875 144.77734375 C45.52682727 154.46171591 40.07747971 163.98969561 32.4375 170.0625 C29.625 170.375 29.625 170.375 27.4375 170.0625 C26.71379386 164.56233331 28.7124734 161.03113909 31.24609375 156.33203125 C32.96540476 153.05688469 33.55979233 150.52233209 33.5 146.875 C33.479375 145.616875 33.45875 144.35875 33.4375 143.0625 C32.839375 143.536875 32.24125 144.01125 31.625 144.5 C27.63319906 147.35128639 24.22252957 147.30580659 19.4375 147.0625 C16 146.0625 16 146.0625 13.4375 145.0625 C14.0975 147.0425 14.7575 149.0225 15.4375 151.0625 C16.406875 150.7325 17.37625 150.4025 18.375 150.0625 C22.73516837 148.79376248 26.93304566 148.87864472 31.4375 149.0625 C31.4375 151.0425 31.4375 153.0225 31.4375 155.0625 C30.32375 155.536875 29.21 156.01125 28.0625 156.5 C16.69746234 162.27303683 9.3872011 171.86985838 5.12109375 183.71875 C4.15385958 186.81929159 3.25373843 189.91922158 2.4375 193.0625 C0.7875 193.0625 -0.8625 193.0625 -2.5625 193.0625 C-2.913125 191.86625 -3.26375 190.67 -3.625 189.4375 C-8.67861868 174.41899943 -15.52851911 163.76646853 -29.5625 156.0625 C-31.0475 155.0725 -31.0475 155.0725 -32.5625 154.0625 C-32.75 151.4375 -32.75 151.4375 -32.5625 149.0625 C-27.10480189 148.95111841 -21.94740641 149.14592019 -16.5625 150.0625 C-16.2325 148.7425 -15.9025 147.4225 -15.5625 146.0625 C-16.078125 146.2275 -16.59375 146.3925 -17.125 146.5625 C-23.15790734 147.80001946 -27.25458511 147.14849703 -32.5625 144.0625 C-33.2225 143.7325 -33.8825 143.4025 -34.5625 143.0625 C-34.01889557 150.40115983 -31.8750363 156.67915593 -28.44140625 163.1875 C-27.32613477 165.56674582 -27.41834186 167.46765351 -27.5625 170.0625 C-30.2734375 170.3671875 -30.2734375 170.3671875 -33.5625 170.0625 C-40.81150228 163.89263722 -45.84978171 155.27440258 -46.93359375 145.828125 C-47.27387066 136.87781112 -45.26516024 130.90569228 -39.5625 124.0625 C-40.2225 123.7325 -40.8825 123.4025 -41.5625 123.0625 C-42.20788847 121.22901002 -42.77912541 119.36915044 -43.3125 117.5 C-45.60315466 110.32999546 -48.9983021 105.37100557 -54.5 100.3125 C-56.5625 98.0625 -56.5625 98.0625 -56.5625 95.8125 C-55.5625 94.0625 -55.5625 94.0625 -52.5625 93.0625 C-55.5325 91.7425 -58.5025 90.4225 -61.5625 89.0625 C-61.5625 87.4125 -61.5625 85.7625 -61.5625 84.0625 C-53.23169834 81.28556611 -39.25258116 89.27678278 -31.51708984 93.03564453 C-25.08838877 96.4130011 -18.92941703 100.60919913 -13.88671875 105.8359375 C-11.73788094 108.40838678 -11.73788094 108.40838678 -8.5625 108.0625 C-9.15417969 107.4334375 -9.74585938 106.804375 -10.35546875 106.15625 C-21.69283563 93.87564379 -21.69283563 93.87564379 -23.375 86.5 C-22.1577367 81.35003987 -18.70973404 79.108125 -14.5625 76.0625 C-16.95207269 72.81950849 -18.7672869 70.55347658 -22.5625 69.0625 C-22.5625 67.0825 -22.5625 65.1025 -22.5625 63.0625 C-21.9025 63.0625 -21.2425 63.0625 -20.5625 63.0625 C-15.68496792 53.70861813 -14.96323139 44.42624285 -14.5625 34.0625 C-12.5825 34.0625 -10.6025 34.0625 -8.5625 34.0625 C-8.2325 34.7225 -7.9025 35.3825 -7.5625 36.0625 C-7.44656494 35.00748291 -7.33062988 33.95246582 -7.21118164 32.86547852 C-6.7813365 28.96442896 -6.34577316 25.06403578 -5.90844727 21.16381836 C-5.71970181 19.4732378 -5.53252351 17.78248154 -5.34692383 16.09155273 C-5.08042173 13.66602831 -4.80835494 11.24118434 -4.53515625 8.81640625 C-4.4116555 7.67577477 -4.4116555 7.67577477 -4.28565979 6.51210022 C-3.55193414 0.08663254 -3.55193414 0.08663254 0 0 Z M-7.5625 88.0625 C-7.5625 91.0625 -7.5625 91.0625 -7.5625 91.0625 Z M6.4375 89.0625 C6.1075 90.3825 5.7775 91.7025 5.4375 93.0625 C6.0975 91.7425 6.7575 90.4225 7.4375 89.0625 C7.1075 89.0625 6.7775 89.0625 6.4375 89.0625 Z M-6.5625 91.0625 C-5.5625 93.0625 -5.5625 93.0625 -5.5625 93.0625 Z M-2.5625 98.0625 C-1.5725 99.0525 -0.5825 100.0425 0.4375 101.0625 C0.7675 100.0725 1.0975 99.0825 1.4375 98.0625 C0.1175 98.0625 -1.2025 98.0625 -2.5625 98.0625 Z M-0.5625 113.0625 C-3.43641821 114.23524994 -3.43641821 114.23524994 -5.5625 116.0625 C-5.36914062 116.63097656 -5.17578125 117.19945312 -4.9765625 117.78515625 C-3.38113577 122.51614938 -1.89349414 127.25044425 -0.5625 132.0625 C-0.2325 132.0625 0.0975 132.0625 0.4375 132.0625 C0.85322266 130.70705078 0.85322266 130.70705078 1.27734375 129.32421875 C1.63957031 128.14472656 2.00179687 126.96523437 2.375 125.75 C2.73464844 124.57824219 3.09429687 123.40648437 3.46484375 122.19921875 C4.10122279 120.14696023 4.75803379 118.10089863 5.4375 116.0625 C2.73878645 114.2540405 2.73878645 114.2540405 -0.5625 113.0625 Z M-36.5625 115.0625 C-36.2325 116.7125 -35.9025 118.3625 -35.5625 120.0625 C-34.5725 119.7325 -33.5825 119.4025 -32.5625 119.0625 C-33.8825 117.7425 -35.2025 116.4225 -36.5625 115.0625 Z M34.4375 115.0625 C33.7775 116.3825 33.1175 117.7025 32.4375 119.0625 C33.9225 120.0525 33.9225 120.0525 35.4375 121.0625 C35.4375 119.0825 35.4375 117.1025 35.4375 115.0625 C35.1075 115.0625 34.7775 115.0625 34.4375 115.0625 Z M-25.5625 129.0625 C-26.70119156 131.8574702 -26.63096818 132.88931578 -25.5 135.75 C-23.69764442 138.35853845 -23.69764442 138.35853845 -20.375 138.875 C-19.446875 138.936875 -18.51875 138.99875 -17.5625 139.0625 C-18.13025536 137.76391061 -18.71741663 136.47379559 -19.3125 135.1875 C-19.63734375 134.46820313 -19.9621875 133.74890625 -20.296875 133.0078125 C-21.78179686 130.7254326 -23.06665408 130.05874102 -25.5625 129.0625 Z M23.4375 129.0625 C19.23266888 133.42900203 19.23266888 133.42900203 17.4375 139.0625 C20.34788542 139.03724816 20.34788542 139.03724816 23.4375 138.0625 C25.49643153 135.27837274 25.49643153 135.27837274 26.4375 132.0625 C26.1075 131.0725 25.7775 130.0825 25.4375 129.0625 C24.7775 129.0625 24.1175 129.0625 23.4375 129.0625 Z M11.4375 132.0625 C11.38327053 133.4995809 11.34460277 134.93725462 11.3125 136.375 C11.28929687 137.17550781 11.26609375 137.97601563 11.2421875 138.80078125 C11.27932678 141.34638576 11.27932678 141.34638576 13.4375 144.0625 C13.7675 142.4125 14.0975 140.7625 14.4375 139.0625 C13.7775 139.0625 13.1175 139.0625 12.4375 139.0625 C12.4375 136.7525 12.4375 134.4425 12.4375 132.0625 C12.1075 132.0625 11.7775 132.0625 11.4375 132.0625 Z M-12.5625 134.0625 C-12.5625 135.7125 -12.5625 137.3625 -12.5625 139.0625 C-12.2325 139.0625 -11.9025 139.0625 -11.5625 139.0625 C-11.5625 137.4125 -11.5625 135.7625 -11.5625 134.0625 C-11.8925 134.0625 -12.2225 134.0625 -12.5625 134.0625 Z M-14.5625 139.0625 C-13.9025 140.3825 -13.2425 141.7025 -12.5625 143.0625 C-12.5625 141.7425 -12.5625 140.4225 -12.5625 139.0625 C-13.2225 139.0625 -13.8825 139.0625 -14.5625 139.0625 Z M-0.5625 144.0625 C-1.26219682 146.30873699 -1.94685043 148.55966414 -2.625 150.8125 C-3.00785156 152.06546875 -3.39070313 153.3184375 -3.78515625 154.609375 C-4.66400526 158.4681967 -4.66400526 158.4681967 -3.5625 162.0625 C-2.28187515 163.7699998 -0.9552289 165.44513741 0.4375 167.0625 C3.5881176 163.32913653 3.5881176 163.32913653 4.15625 158.75 C3.9190625 157.863125 3.681875 156.97625 3.4375 156.0625 C3.06431641 154.52142578 3.06431641 154.52142578 2.68359375 152.94921875 C2.41675781 151.89347656 2.14992188 150.83773437 1.875 149.75 C1.60558594 148.68136719 1.33617187 147.61273438 1.05859375 146.51171875 C0.85363281 145.70347656 0.64867187 144.89523438 0.4375 144.0625 C0.1075 144.0625 -0.2225 144.0625 -0.5625 144.0625 Z " fill="#030303" transform="translate(128.5625,32.9375)"/>
<path d="M0 0 C1.2065625 0.0309375 1.2065625 0.0309375 2.4375 0.0625 C4.38898399 12.02394893 5.90012266 24.04230425 7.4375 36.0625 C7.9325 35.0725 7.9325 35.0725 8.4375 34.0625 C9.7575 34.0625 11.0775 34.0625 12.4375 34.0625 C12.49357422 35.74666016 12.49357422 35.74666016 12.55078125 37.46484375 C12.95010421 51.70974594 12.95010421 51.70974594 19.4375 64.0625 C19.4375 64.7225 19.4375 65.3825 19.4375 66.0625 C17.46875 67.7890625 17.46875 67.7890625 14.9375 69.6875 C14.1021875 70.31914063 13.266875 70.95078125 12.40625 71.6015625 C11.7565625 72.08367187 11.106875 72.56578125 10.4375 73.0625 C10.79048081 75.9633605 11.32478296 76.95766676 13.50390625 78.984375 C14.32761719 79.58765625 15.15132813 80.1909375 16 80.8125 C16.82628906 81.42609375 17.65257812 82.0396875 18.50390625 82.671875 C19.14199219 83.13078125 19.78007812 83.5896875 20.4375 84.0625 C18.24108865 93.58028252 10.26588819 100.55336113 3.4375 107.0625 C5.4175 108.3825 7.3975 109.7025 9.4375 111.0625 C12.44783512 109.72963024 14.31388334 108.31830686 16.5 105.875 C24.78118221 97.41873994 35.74945148 92.73250318 46.4375 88.0625 C47.2934375 87.68609375 48.149375 87.3096875 49.03125 86.921875 C52.63937821 85.44092685 54.72821792 84.89880366 58.4375 86.0625 C57.41011719 86.55878906 56.38273437 87.05507812 55.32421875 87.56640625 C38.04019779 95.99921774 19.00133715 106.24987939 11.4375 125.0625 C8.63289304 134.1120318 10.16517573 143.75173782 14.4375 152.0625 C16.35872605 153.31299608 16.35872605 153.31299608 18.20703125 152.50390625 C19.21830078 152.06884766 19.21830078 152.06884766 20.25 151.625 C23.46015248 150.3386001 25.93501214 149.73414176 29.4375 150.0625 C29.4375 150.7225 29.4375 151.3825 29.4375 152.0625 C28.32375 152.536875 27.21 153.01125 26.0625 153.5 C14.59419013 159.29515658 7.14929466 169.19235988 3.02734375 181.16796875 C2.10824265 184.12004845 1.24582512 187.07791495 0.4375 190.0625 C-0.2225 189.7325 -0.8825 189.4025 -1.5625 189.0625 C-1.81 187.804375 -2.0575 186.54625 -2.3125 185.25 C-4.589506 174.23279406 -10.80010926 163.64444677 -20.19140625 157.28125 C-21.89496845 156.26952747 -23.61762634 155.2887901 -25.36328125 154.3515625 C-27.46804141 153.11786649 -28.93508906 151.86371211 -30.5625 150.0625 C-20.00441344 150.84154328 -20.00441344 150.84154328 -15.5625 153.0625 C-14.91254703 151.64771865 -14.26771278 150.23058513 -13.625 148.8125 C-13.26535156 148.02359375 -12.90570313 147.2346875 -12.53515625 146.421875 C-9.449346 138.93661641 -9.86435987 131.28192039 -12.40234375 123.66796875 C-21.09458684 104.14700532 -41.0609976 94.25127008 -59.5625 86.0625 C-55.43462253 84.29791116 -52.04146048 86.01841245 -48.125 87.5625 C-47.41778809 87.83658691 -46.71057617 88.11067383 -45.98193359 88.39306641 C-34.98850874 92.7672195 -25.5295933 98.33948991 -16.5625 106.0625 C-15.35539673 107.06398447 -14.14726496 108.06423241 -12.9375 109.0625 C-11.761875 110.0525 -11.761875 110.0525 -10.5625 111.0625 C-8.5825 109.7425 -6.6025 108.4225 -4.5625 107.0625 C-5.2225 106.44375 -5.8825 105.825 -6.5625 105.1875 C-11.82015291 99.92984709 -17.2779797 93.76034532 -20.5625 87.0625 C-20.52175476 84.012428 -19.62658838 83.12889023 -17.49609375 80.921875 C-16.26052734 79.87773437 -16.26052734 79.87773437 -15 78.8125 C-14.17371094 78.10609375 -13.34742188 77.3996875 -12.49609375 76.671875 C-11.53896484 75.87523438 -11.53896484 75.87523438 -10.5625 75.0625 C-11.4705162 73.93050647 -12.38933826 72.80717637 -13.3125 71.6875 C-13.82296875 71.06101562 -14.3334375 70.43453125 -14.859375 69.7890625 C-16.64449481 67.97937682 -18.24199644 67.06132545 -20.5625 66.0625 C-20.5625 65.4025 -20.5625 64.7425 -20.5625 64.0625 C-19.9025 64.0625 -19.2425 64.0625 -18.5625 64.0625 C-13.53921908 54.40736265 -12.94635317 44.7309708 -12.5625 34.0625 C-11.2425 34.0625 -9.9225 34.0625 -8.5625 34.0625 C-8.2325 34.7225 -7.9025 35.3825 -7.5625 36.0625 C-7.44656494 35.00748291 -7.33062988 33.95246582 -7.21118164 32.86547852 C-6.7813365 28.96442896 -6.34577316 25.06403578 -5.90844727 21.16381836 C-5.71970181 19.4732378 -5.53252351 17.78248154 -5.34692383 16.09155273 C-5.08042173 13.66602831 -4.80835494 11.24118434 -4.53515625 8.81640625 C-4.4116555 7.67577477 -4.4116555 7.67577477 -4.28565979 6.51210022 C-3.55193414 0.08663254 -3.55193414 0.08663254 0 0 Z M-7.5625 88.0625 C-7.5625 91.0625 -7.5625 91.0625 -7.5625 91.0625 Z M6.4375 89.0625 C6.1075 90.3825 5.7775 91.7025 5.4375 93.0625 C6.0975 91.7425 6.7575 90.4225 7.4375 89.0625 C7.1075 89.0625 6.7775 89.0625 6.4375 89.0625 Z M-6.5625 91.0625 C-5.5625 93.0625 -5.5625 93.0625 -5.5625 93.0625 Z M-2.5625 98.0625 C-1.5725 99.0525 -0.5825 100.0425 0.4375 101.0625 C0.7675 100.0725 1.0975 99.0825 1.4375 98.0625 C0.1175 98.0625 -1.2025 98.0625 -2.5625 98.0625 Z M-0.5625 113.0625 C-3.43641821 114.23524994 -3.43641821 114.23524994 -5.5625 116.0625 C-5.36914062 116.63097656 -5.17578125 117.19945312 -4.9765625 117.78515625 C-3.38113577 122.51614938 -1.89349414 127.25044425 -0.5625 132.0625 C-0.2325 132.0625 0.0975 132.0625 0.4375 132.0625 C0.85322266 130.70705078 0.85322266 130.70705078 1.27734375 129.32421875 C1.63957031 128.14472656 2.00179687 126.96523437 2.375 125.75 C2.73464844 124.57824219 3.09429687 123.40648437 3.46484375 122.19921875 C4.10122279 120.14696023 4.75803379 118.10089863 5.4375 116.0625 C2.73878645 114.2540405 2.73878645 114.2540405 -0.5625 113.0625 Z M-0.5625 144.0625 C-1.26219682 146.30873699 -1.94685043 148.55966414 -2.625 150.8125 C-3.00785156 152.06546875 -3.39070313 153.3184375 -3.78515625 154.609375 C-4.66400526 158.4681967 -4.66400526 158.4681967 -3.5625 162.0625 C-2.28187515 163.7699998 -0.9552289 165.44513741 0.4375 167.0625 C3.5881176 163.32913653 3.5881176 163.32913653 4.15625 158.75 C3.9190625 157.863125 3.681875 156.97625 3.4375 156.0625 C3.06431641 154.52142578 3.06431641 154.52142578 2.68359375 152.94921875 C2.41675781 151.89347656 2.14992188 150.83773437 1.875 149.75 C1.60558594 148.68136719 1.33617187 147.61273438 1.05859375 146.51171875 C0.85363281 145.70347656 0.64867187 144.89523438 0.4375 144.0625 C0.1075 144.0625 -0.2225 144.0625 -0.5625 144.0625 Z " fill="#C3C3C3" transform="translate(128.5625,32.9375)"/>
<path d="M0 0 C2.28125 -0.296875 2.28125 -0.296875 5 0 C14.60480123 10.33737082 18.34341219 24.81717015 18.21484375 38.48828125 C17.72839296 46.43954056 14.85974357 51.82681222 10 58 C11.98 59.32 13.96 60.64 16 62 C15.67 61.34 15.34 60.68 15 60 C14.960008 58.00039988 14.95653201 55.99952758 15 54 C17.0625 53.5625 17.0625 53.5625 20 54 C27.64123603 59.37845543 32.0884872 68.51506972 33.71484375 77.546875 C35.00447875 88.64126924 33.26965515 98.44255929 30 109 C29 110 29 110 26.4375 110.0625 C25.633125 110.041875 24.82875 110.02125 24 110 C23.76216797 108.35064453 23.76216797 108.35064453 23.51953125 106.66796875 C21.46186185 93.27794311 18.0617489 79.92865681 6.7265625 71.26171875 C2.31526614 68.46769676 2.31526614 68.46769676 -2.6875 68.5625 C-3.450625 69.036875 -4.21375 69.51125 -5 70 C-6.99620166 70.67795528 -8.99538701 71.34733531 -11 72 C-10.94779297 73.14275391 -10.94779297 73.14275391 -10.89453125 74.30859375 C-10.67121091 82.82666945 -11.45206151 89.14169314 -16.1875 96.3125 C-23.21668261 103.0292745 -30.61398238 104.15908504 -40 104 C-40 102.02 -40 100.04 -40 98 C-39.18015625 97.64808594 -38.3603125 97.29617187 -37.515625 96.93359375 C-30.45096438 93.95672228 -30.45096438 93.95672228 -25.3125 88.5625 C-23.31148438 83.13117189 -22.16074044 79.25732828 -24.5 73.8125 C-26.94906188 69.47824959 -29.40195597 67.87039079 -34 66 C-39.85443658 65.14844559 -44.28939954 66.574926 -49 70 C-51.14661262 72.30959617 -53.12548435 74.66905326 -55.04296875 77.171875 C-57 79 -57 79 -59.73828125 79.265625 C-60.48464844 79.17796875 -61.23101562 79.0903125 -62 79 C-62.59578873 71.99948236 -60.73067844 66.58099096 -56.45703125 60.9765625 C-51.61913711 55.72905261 -47.06054812 53.42132795 -39.98828125 52.6875 C-34.0832866 52.4638789 -29.84255736 52.86371324 -24.5 55.4375 C-20.8699091 56.94253039 -19.50891116 57.16178908 -15.70703125 55.953125 C-12.27972547 54.17045272 -9.15774634 52.22347772 -6 50 C-5.18789062 49.43152344 -4.37578125 48.86304688 -3.5390625 48.27734375 C2.19596754 43.76820303 5.31465386 38.68319861 6.375 31.4375 C6.7532454 23.30522382 4.61091767 15.0495873 0.875 7.82421875 C-0.37982517 5.20813234 -0.12976263 2.8547779 0 0 Z " fill="#C4C4C4" transform="translate(220,45)"/>
<path d="M0 0 C1.2065625 0.0309375 1.2065625 0.0309375 2.4375 0.0625 C1.87945856 5.04682466 0.75726727 9.27170135 -1.0625 13.9375 C-4.11727934 22.29608464 -5.98851327 29.54230994 -2.5625 38.0625 C-1.28177629 40.0965906 0.04037726 42.10652816 1.4375 44.0625 C1.4375 44.7225 1.4375 45.3825 1.4375 46.0625 C2.00984375 46.33191406 2.5821875 46.60132813 3.171875 46.87890625 C5.49750393 48.09384688 7.54603807 49.48634076 9.6875 51 C15.61748568 55.12663723 15.61748568 55.12663723 22.4375 57.0625 C24.962575 56.2657953 27.25722999 55.18837429 29.65625 54.0703125 C35.69748845 51.88121205 43.2555192 51.9144308 49.3125 54.1875 C56.06179494 58.23707696 60.85983006 62.44279436 63.4375 70.0625 C63.98089194 72.76103964 64.24067448 75.30694266 64.4375 78.0625 C62.7875 78.3925 61.1375 78.7225 59.4375 79.0625 C58.83615234 78.28326172 58.83615234 78.28326172 58.22265625 77.48828125 C53.13058264 71.24154242 47.97311104 66.85822124 39.875 65.4375 C34.03503314 66.49931216 29.93464016 69.06631312 26.375 73.8125 C24.7275173 79.52377335 25.44200183 84.10837397 28.125 89.375 C32.17589474 94.08279659 36.5148916 96.37032617 42.4375 98.0625 C42.480221 99.72861905 42.47813832 101.39632885 42.4375 103.0625 C41.4375 104.0625 41.4375 104.0625 38.5 104.3125 C31.1601197 104.16178377 24.25390454 101.97219397 18.90625 96.8515625 C14.00792687 90.88498805 12.37176915 83.67413202 12.4375 76.0625 C12.92578125 73.76953125 12.92578125 73.76953125 13.4375 72.0625 C12.550625 71.77375 11.66375 71.485 10.75 71.1875 C7.4375 70.0625 7.4375 70.0625 5.0625 68.6875 C1.46782706 67.83162549 -0.28781128 68.75961016 -3.4453125 70.546875 C-12.89828616 77.3139484 -18.07372454 87.61634125 -20.2265625 98.84765625 C-20.79239557 102.57820682 -21.20474673 106.30609062 -21.5625 110.0625 C-23.2125 110.0625 -24.8625 110.0625 -26.5625 110.0625 C-32.63708004 99.2939263 -33.63471696 84.58145631 -30.4375 72.625 C-27.941468 65.7047217 -24.14339229 58.92789328 -18.5625 54.0625 C-15.8125 53.8125 -15.8125 53.8125 -13.5625 54.0625 C-12.58129536 57.11513664 -12.58129536 59.00986336 -13.5625 62.0625 C-11.9125 61.0725 -10.2625 60.0825 -8.5625 59.0625 C-9.56148325 57.05557401 -10.56717365 55.05347016 -11.59765625 53.0625 C-11.93667969 52.4025 -12.27570312 51.7425 -12.625 51.0625 C-12.96660156 50.4025 -13.30820312 49.7425 -13.66015625 49.0625 C-17.44377954 40.67628734 -16.69117848 28.4744009 -14.0625 19.8125 C-11.91700355 14.22801284 -6.48068002 0.15806537 0 0 Z " fill="#C4C4C4" transform="translate(34.5625,44.9375)"/>
<path d="M0 0 C0.66 0 1.32 0 2 0 C2.03738281 1.05058594 2.07476562 2.10117188 2.11328125 3.18359375 C2.46929674 16.3083537 2.46929674 16.3083537 8.25 27.75 C10 30 10 30 10.25 32.4375 C8.26926836 36.49799987 4.69977296 38.54753091 1 41 C4.39634558 44.53260871 4.39634558 44.53260871 8.3125 47.4375 C10 49 10 49 10.3046875 51.75 C9.59150962 59.35723074 3.48158014 65.98826959 -2 71 C-2.66 71.99 -3.32 72.98 -4 74 C-0.13006193 73.44342464 1.49556236 71.74434704 4.1875 69 C13.46747755 60.45372492 24.96985232 55.413034 36.8125 51.375 C37.57111328 51.11501221 38.32972656 50.85502441 39.11132812 50.5871582 C42.83911188 49.39755662 45.26955293 48.82576227 49 50 C49 52.25 49 52.25 48 55 C45.47332213 56.67198768 42.80063432 57.85805571 40 59 C40.99 59.33 41.98 59.66 43 60 C43.5 62.5625 43.5 62.5625 43 66 C41.39453125 67.5703125 41.39453125 67.5703125 39.3125 69.1875 C33.47305842 73.82804738 31.47585768 79.93853119 28.9921875 86.7734375 C28 89 28 89 26 90 C26.763125 90.825 27.52625 91.65 28.3125 92.5 C32.78835032 97.9295116 34.57014986 103.69698461 34.28125 110.71484375 C33.08932727 120.39921591 27.63997971 129.92719561 20 136 C17.1875 136.3125 17.1875 136.3125 15 136 C14.27629386 130.49983331 16.2749734 126.96863909 18.80859375 122.26953125 C20.52790476 118.99438469 21.12229233 116.45983209 21.0625 112.8125 C21.041875 111.554375 21.02125 110.29625 21 109 C20.401875 109.474375 19.80375 109.94875 19.1875 110.4375 C15.19569906 113.28878639 11.78502957 113.24330659 7 113 C3.5625 112 3.5625 112 1 111 C1.77479736 113.99152582 1.77479736 113.99152582 3 117 C3.99 117.33 4.98 117.66 6 118 C4.515 118.99 4.515 118.99 3 120 C-2.68364904 112.23234632 -3.97481703 104.54102164 -3 95 C-1.22913499 88.00709555 2.29715081 82.38978221 7 77 C7.93779297 75.92105469 7.93779297 75.92105469 8.89453125 74.8203125 C18.34705838 64.68383628 31.87679461 56.3744018 45 52 C29.9156937 54.62455879 14.53124807 62.54495298 3.85522461 73.49462891 C2.633091 74.72876776 1.32077511 75.87205391 0 77 C-4.71906188 77 -6.27037031 75.71245796 -10 73 C-9.34 72.360625 -8.68 71.72125 -8 71.0625 C2.08712402 61.90293083 2.08712402 61.90293083 7 50 C4.7651724 48.16698989 2.42226128 46.52536247 0.06640625 44.8515625 C-2.14545952 42.86966387 -2.64927875 41.89504453 -3 39 C-1.71372289 37.82739389 -0.42080217 36.6620717 0.875 35.5 C1.95394531 34.52546875 1.95394531 34.52546875 3.0546875 33.53125 C5 32 5 32 7 32 C6.57847656 31.33613281 6.15695313 30.67226562 5.72265625 29.98828125 C5.17480469 29.10527344 4.62695312 28.22226563 4.0625 27.3125 C3.51722656 26.44238281 2.97195312 25.57226562 2.41015625 24.67578125 C-0.40370831 19.33645376 -0.12668351 14.07757133 -0.0625 8.1875 C-0.05798828 7.39923828 -0.05347656 6.61097656 -0.04882812 5.79882812 C-0.03711312 3.86585239 -0.01917998 1.93291607 0 0 Z M22 81 C21.34 82.32 20.68 83.64 20 85 C21.485 85.99 21.485 85.99 23 87 C23 85.02 23 83.04 23 81 C22.67 81 22.34 81 22 81 Z M11 95 C6.79516888 99.36650203 6.79516888 99.36650203 5 105 C7.91038542 104.97474816 7.91038542 104.97474816 11 104 C13.05893153 101.21587274 13.05893153 101.21587274 14 98 C13.67 97.01 13.34 96.02 13 95 C12.34 95 11.68 95 11 95 Z M-1 98 C-1.05422947 99.4370809 -1.09289723 100.87475462 -1.125 102.3125 C-1.14820313 103.11300781 -1.17140625 103.91351563 -1.1953125 104.73828125 C-1.15817322 107.28388576 -1.15817322 107.28388576 1 110 C1.33 108.35 1.66 106.7 2 105 C1.34 105 0.68 105 0 105 C0 102.69 0 100.38 0 98 C-0.33 98 -0.66 98 -1 98 Z " fill="#040404" transform="translate(141,67)"/>
<path d="M0 0 C5.51511526 0.56232548 10.09453662 1.96865106 15.1875 4.125 C15.9307251 4.43775879 16.6739502 4.75051758 17.43969727 5.07275391 C28.21024523 9.70812079 37.95861556 15.30114388 46 24 C46.495 25.485 46.495 25.485 47 27 C48.65541848 28.12714988 48.65541848 28.12714988 51 28 C52.72859751 27.1307613 52.72859751 27.1307613 54.5 26 C57.76388889 23.97916667 57.76388889 23.97916667 60.125 24.1875 C60.74375 24.455625 61.3625 24.72375 62 25 C65.73824761 25.95852503 68.2797008 26.08721072 72 25 C73.92178856 23.41191673 73.92178856 23.41191673 75.625 21.375 C84.03901694 12.58493761 95.01657478 7.79906417 106 3 C106.8559375 2.62359375 107.711875 2.2471875 108.59375 1.859375 C112.20187821 0.37842685 114.29071792 -0.16369634 118 1 C116.97261719 1.49628906 115.94523437 1.99257812 114.88671875 2.50390625 C97.60269779 10.93671774 78.56383715 21.18737939 71 40 C68.19539304 49.0495318 69.72767573 58.68923782 74 67 C75.92122605 68.25049608 75.92122605 68.25049608 77.76953125 67.44140625 C78.78080078 67.00634766 78.78080078 67.00634766 79.8125 66.5625 C83.02265248 65.2761001 85.49751214 64.67164176 89 65 C89 65.66 89 66.32 89 67 C87.88625 67.474375 86.7725 67.94875 85.625 68.4375 C74.15669013 74.23265658 66.71179466 84.12985988 62.58984375 96.10546875 C61.67074265 99.05754845 60.80832512 102.01541495 60 105 C59.01 104.505 59.01 104.505 58 104 C57.7525 102.741875 57.505 101.48375 57.25 100.1875 C54.972994 89.17029406 48.76239074 78.58194677 39.37109375 72.21875 C37.66753155 71.20702747 35.94487366 70.2262901 34.19921875 69.2890625 C32.09445859 68.05536649 30.62741094 66.80121211 29 65 C39.55808656 65.77904328 39.55808656 65.77904328 44 68 C44.64995297 66.58521865 45.29478722 65.16808513 45.9375 63.75 C46.47697266 62.56664062 46.47697266 62.56664062 47.02734375 61.359375 C50.113154 53.87411641 49.69814013 46.21942039 47.16015625 38.60546875 C38.46791316 19.08450532 18.5015024 9.18877008 0 1 C0 0.67 0 0.34 0 0 Z M59 28 C56.12608179 29.17274994 56.12608179 29.17274994 54 31 C54.19335938 31.56847656 54.38671875 32.13695312 54.5859375 32.72265625 C56.18136423 37.45364938 57.66900586 42.18794425 59 47 C59.33 47 59.66 47 60 47 C60.41572266 45.64455078 60.41572266 45.64455078 60.83984375 44.26171875 C61.20207031 43.08222656 61.56429687 41.90273437 61.9375 40.6875 C62.29714844 39.51574219 62.65679687 38.34398437 63.02734375 37.13671875 C63.66372279 35.08446023 64.32053379 33.03839863 65 31 C62.30128645 29.1915405 62.30128645 29.1915405 59 28 Z M59 59 C58.30030318 61.24623699 57.61564957 63.49716414 56.9375 65.75 C56.55464844 67.00296875 56.17179687 68.2559375 55.77734375 69.546875 C54.89849474 73.4056967 54.89849474 73.4056967 56 77 C57.28062485 78.7074998 58.6072711 80.38263741 60 82 C63.1506176 78.26663653 63.1506176 78.26663653 63.71875 73.6875 C63.4815625 72.800625 63.244375 71.91375 63 71 C62.62681641 69.45892578 62.62681641 69.45892578 62.24609375 67.88671875 C61.97925781 66.83097656 61.71242188 65.77523437 61.4375 64.6875 C61.16808594 63.61886719 60.89867187 62.55023438 60.62109375 61.44921875 C60.41613281 60.64097656 60.21117187 59.83273438 60 59 C59.67 59 59.34 59 59 59 Z " fill="#A8A8A8" transform="translate(69,118)"/>
<path d="M0 0 C3.20992988 2.62801277 4.21700418 5.66472305 5.625 9.5 C6.05039063 10.6446875 6.47578125 11.789375 6.9140625 12.96875 C9.96438034 21.48330629 10.90898155 32.02716606 7.0625 40.5 C1.37707744 49.92832574 -8.62460648 56.61671951 -19 60 C-21.69140625 59.28125 -21.69140625 59.28125 -24 58 C-30.62283903 55.01080971 -37.09608781 53.40815416 -44.23828125 55.7265625 C-51.47826128 59.08067754 -55.22291227 63.77325218 -58.30078125 71.01171875 C-59.1105845 72.96318113 -59.1105845 72.96318113 -59 75 C-58.5875 74.48050781 -58.175 73.96101563 -57.75 73.42578125 C-53.03793484 67.73554185 -48.66273852 62.76768435 -41.10546875 61.5234375 C-35.16310112 61.2393998 -30.47593054 61.79905137 -25.625 65.38671875 C-21.7474686 69.23628719 -19.82656888 73.61211829 -19.5625 79.0625 C-20.33046169 85.97415517 -22.62062669 90.57695972 -28 95 C-34.79738562 99 -34.79738562 99 -38 99 C-38 99.66 -38 100.32 -38 101 C-27.50580022 99.0241328 -27.50580022 99.0241328 -19 93 C-15.25571664 87.23426305 -13.80921272 82.43319134 -14.5625 75.625 C-14.60088186 72.04589158 -14.53658708 70.58716701 -12.09375 67.9140625 C-7.33003106 64.78235838 -2.91398833 62.97626077 2.77734375 64.140625 C11.99630739 67.70507491 18.16960472 75.96772006 22.25 84.6640625 C24.84031395 91.27317237 26.06925737 97.98269046 27 105 C27.48212214 103.43840941 27.96055873 101.87568072 28.4375 100.3125 C28.70433594 99.44238281 28.97117187 98.57226562 29.24609375 97.67578125 C32.87095204 84.81035157 30.37066841 73.58068873 24 62 C23.3286591 60.66901404 22.66078654 59.33625722 22 58 C21.34 58 20.68 58 20 58 C18.375 56.5 18.375 56.5 17 55 C17.42152344 55.79664063 17.84304687 56.59328125 18.27734375 57.4140625 C19.09912109 59.00347656 19.09912109 59.00347656 19.9375 60.625 C20.48277344 61.66914062 21.02804688 62.71328125 21.58984375 63.7890625 C22.96669717 66.92416918 23.59842216 69.61454632 24 73 C23.01 71.948125 23.01 71.948125 22 70.875 C16.66957661 65.574692 11.04016774 61.6400629 4 59 C4.38671875 58.52691406 4.7734375 58.05382812 5.171875 57.56640625 C12.23788136 48.59397738 16.12478562 39.51717103 15 28 C13.26978256 20.57489544 10.18840694 14.03604612 6.3671875 7.47265625 C5.02015978 5.0364604 3.97801654 2.6033869 3 0 C6.98627536 1.32875845 7.9881551 3.76111565 9.9375 7.25 C10.28941406 7.87970703 10.64132813 8.50941406 11.00390625 9.15820312 C17.33020666 20.86185889 20.69337173 33.80052616 16.8125 46.9375 C15.17941343 51.1301357 12.77326603 54.47720262 10 58 C11.98 59.32 13.96 60.64 16 62 C15.67 61.34 15.34 60.68 15 60 C14.960008 58.00039988 14.95653201 55.99952758 15 54 C17.0625 53.5625 17.0625 53.5625 20 54 C27.64123603 59.37845543 32.0884872 68.51506972 33.71484375 77.546875 C35.00447875 88.64126924 33.26965515 98.44255929 30 109 C29 110 29 110 26.4375 110.0625 C25.633125 110.041875 24.82875 110.02125 24 110 C23.76216797 108.35064453 23.76216797 108.35064453 23.51953125 106.66796875 C21.46186185 93.27794311 18.0617489 79.92865681 6.7265625 71.26171875 C2.31526614 68.46769676 2.31526614 68.46769676 -2.6875 68.5625 C-3.450625 69.036875 -4.21375 69.51125 -5 70 C-6.99620166 70.67795528 -8.99538701 71.34733531 -11 72 C-10.94779297 73.14275391 -10.94779297 73.14275391 -10.89453125 74.30859375 C-10.67121091 82.82666945 -11.45206151 89.14169314 -16.1875 96.3125 C-23.21668261 103.0292745 -30.61398238 104.15908504 -40 104 C-40 102.02 -40 100.04 -40 98 C-39.18015625 97.64808594 -38.3603125 97.29617187 -37.515625 96.93359375 C-30.45096438 93.95672228 -30.45096438 93.95672228 -25.3125 88.5625 C-23.31148438 83.13117189 -22.16074044 79.25732828 -24.5 73.8125 C-26.94906188 69.47824959 -29.40195597 67.87039079 -34 66 C-39.85443658 65.14844559 -44.28939954 66.574926 -49 70 C-51.14661262 72.30959617 -53.12548435 74.66905326 -55.04296875 77.171875 C-57 79 -57 79 -59.73828125 79.265625 C-60.48464844 79.17796875 -61.23101562 79.0903125 -62 79 C-62.59578873 71.99948236 -60.73067844 66.58099096 -56.45703125 60.9765625 C-51.61913711 55.72905261 -47.06054812 53.42132795 -39.98828125 52.6875 C-34.0832866 52.4638789 -29.84255736 52.86371324 -24.5 55.4375 C-20.8699091 56.94253039 -19.50891116 57.16178908 -15.70703125 55.953125 C-12.27972547 54.17045272 -9.15774634 52.22347772 -6 50 C-5.18789062 49.43152344 -4.37578125 48.86304688 -3.5390625 48.27734375 C2.19596754 43.76820303 5.31465386 38.68319861 6.375 31.4375 C6.7532454 23.30522382 4.61091767 15.0495873 0.875 7.82421875 C-0.37982517 5.20813234 -0.12976263 2.8547779 0 0 Z " fill="#030303" transform="translate(220,45)"/>
<path d="M0 0 C0.66 0.33 1.32 0.66 2 1 C1.38511719 2.03898437 0.77023438 3.07796875 0.13671875 4.1484375 C-6.71990847 15.89801715 -11.76935799 25.96088845 -10 40 C-7.98406668 46.9769544 -5.06430938 52.79099607 0 58 C-2.03654295 60.03654295 -3.62830869 60.86522597 -6.1875 62.125 C-11.2558196 64.85598774 -14.51457297 68.48351416 -18 73 C-19.33363823 69.36203747 -18.65099829 67.42624782 -17.125 63.9375 C-16.75632812 63.08027344 -16.38765625 62.22304687 -16.0078125 61.33984375 C-15.67523438 60.56769531 -15.34265625 59.79554687 -15 59 C-14.67 58.01 -14.34 57.02 -14 56 C-23.04043499 65.64313066 -26.4387851 75.39976198 -26.26953125 88.6015625 C-25.91386555 93.08604301 -24.90481485 97.22688946 -23.65625 101.5390625 C-23 104 -23 104 -23 107 C-22.34 107 -21.68 107 -21 107 C-21.04640625 106.42894531 -21.0928125 105.85789062 -21.140625 105.26953125 C-21.69006929 92.92665771 -17.15766589 81.35305927 -9.26953125 71.93359375 C-5.17671825 67.60587316 -1.24541513 64.59007548 4.75 63.5 C9.86042152 64.2862187 14.20784003 65.31557185 18 69 C18.78595963 72.54128403 18.81260381 75.78643247 18.81640625 79.41015625 C19.15008365 85.93461427 21.93509949 90.93509949 26.5 95.5 C31.72903505 98.63742103 37.08336403 99.7883142 43 101 C43 100.34 43 99.68 43 99 C42.175 98.95875 41.35 98.9175 40.5 98.875 C35.06722458 97.51680615 31.01762422 94.63192881 27.6015625 90.17578125 C24.62962565 84.98016116 24.19980448 79.87797943 25 74 C26.79353835 68.71902596 29.60999202 66.20104749 34 63 C39.35981572 61.21339476 45.13517434 61.0064446 50.51171875 62.87109375 C55.81789547 65.61877439 59.48100796 69.21141084 63 74 C63 69.00739538 60.71260229 64.89505871 57.38671875 61.21484375 C51.72933466 56.10939957 46.31411696 54.54775637 38.7578125 54.5703125 C35.4593135 55.08424294 33.18455624 56.36457786 30.25 57.9375 C26.34274108 59.71033085 24.67872095 60.17532371 20.4765625 59.08984375 C10.46008074 54.32060786 0.53062117 47.44012705 -4 37 C-4.75 34.0625 -4.75 34.0625 -5 31 C-5.103125 29.845 -5.20625 28.69 -5.3125 27.5 C-5.18545562 18.04426802 -1.16147805 8.36722715 3 0 C3.66 0 4.32 0 5 0 C4.44195856 4.98432466 3.31976727 9.20920135 1.5 13.875 C-1.55477934 22.23358464 -3.42601327 29.47980994 0 38 C1.28072371 40.0340906 2.60287726 42.04402816 4 44 C4 44.66 4 45.32 4 46 C4.57234375 46.26941406 5.1446875 46.53882813 5.734375 46.81640625 C8.06000393 48.03134688 10.10853807 49.42384076 12.25 50.9375 C18.17998568 55.06413723 18.17998568 55.06413723 25 57 C27.525075 56.2032953 29.81972999 55.12587429 32.21875 54.0078125 C38.25998845 51.81871205 45.8180192 51.8519308 51.875 54.125 C58.62429494 58.17457696 63.42233006 62.38029436 66 70 C66.54339194 72.69853964 66.80317448 75.24444266 67 78 C65.35 78.33 63.7 78.66 62 79 C61.39865234 78.22076172 61.39865234 78.22076172 60.78515625 77.42578125 C55.69308264 71.17904242 50.53561104 66.79572124 42.4375 65.375 C36.59753314 66.43681216 32.49714016 69.00381312 28.9375 73.75 C27.2900173 79.46127335 28.00450183 84.04587397 30.6875 89.3125 C34.73839474 94.02029659 39.0773916 96.30782617 45 98 C45.042721 99.66611905 45.04063832 101.33382885 45 103 C44 104 44 104 41.0625 104.25 C33.7226197 104.09928377 26.81640454 101.90969397 21.46875 96.7890625 C16.57042687 90.82248805 14.93426915 83.61163202 15 76 C15.48828125 73.70703125 15.48828125 73.70703125 16 72 C15.113125 71.71125 14.22625 71.4225 13.3125 71.125 C10 70 10 70 7.625 68.625 C4.03032706 67.76912549 2.27468872 68.69711016 -0.8828125 70.484375 C-10.33578616 77.2514484 -15.51122454 87.55384125 -17.6640625 98.78515625 C-18.22989557 102.51570682 -18.64224673 106.24359062 -19 110 C-20.65 110 -22.3 110 -24 110 C-30.07458004 99.2314263 -31.07221696 84.51895631 -27.875 72.5625 C-25.378968 65.6422217 -21.58089229 58.86539328 -16 54 C-13.25 53.75 -13.25 53.75 -11 54 C-10.01879536 57.05263664 -10.01879536 58.94736336 -11 62 C-9.35 61.01 -7.7 60.02 -6 59 C-6.99898325 56.99307401 -8.00467365 54.99097016 -9.03515625 53 C-9.37417969 52.34 -9.71320312 51.68 -10.0625 51 C-10.40410156 50.34 -10.74570312 49.68 -11.09765625 49 C-14.88127954 40.61378734 -14.12867848 28.4119009 -11.5 19.75 C-8.97550587 13.17902431 -5.00476856 5.00476856 0 0 Z " fill="#030303" transform="translate(32,45)"/>
<path d="M0 0 C0 0.66 0 1.32 0 2 C-0.76054687 2.44214844 -1.52109375 2.88429687 -2.3046875 3.33984375 C-9.48737729 7.76396427 -12.10831815 17.20096081 -14 25 C-14.66 25 -15.32 25 -16 25 C-16.0270043 23.54176788 -16.04639787 22.08339325 -16.0625 20.625 C-16.07410156 19.81289062 -16.08570313 19.00078125 -16.09765625 18.1640625 C-16 16 -16 16 -15 14 C-16.31896465 14.92838287 -17.62998689 15.86805732 -18.9375 16.8125 C-20.03384766 17.59560547 -20.03384766 17.59560547 -21.15234375 18.39453125 C-23.26883226 19.95867127 -23.26883226 19.95867127 -24 23 C-23.25234375 23.67804688 -22.5046875 24.35609375 -21.734375 25.0546875 C-15.05232697 31.29058797 -9.49089976 36.93104346 -8.82421875 46.53125 C-9.30462861 57.26592549 -15.89807984 64.54562723 -23 72 C-23.33 71.34 -23.66 70.68 -24 70 C-23.07421875 67.93359375 -23.07421875 67.93359375 -21.6875 65.4375 C-17.17070979 56.65555135 -16.65232729 49.74330942 -18 40 C-18.66 40 -19.32 40 -20 40 C-20.2475 40.763125 -20.495 41.52625 -20.75 42.3125 C-22.16549591 45.35581622 -23.1535801 46.28917271 -26 48 C-28.5078125 48.328125 -28.5078125 48.328125 -31.125 48.25 C-31.99382812 48.23453125 -32.86265625 48.2190625 -33.7578125 48.203125 C-36 48 -36 48 -38 47 C-38 46.34 -38 45.68 -38 45 C-36.1128125 44.8453125 -36.1128125 44.8453125 -34.1875 44.6875 C-31.78670988 44.36513242 -30.19605161 44.10751218 -28.0625 42.9375 C-26.29769486 39.71932592 -26.23189234 36.65230433 -26 33 C-26.33 32.34 -26.66 31.68 -27 31 C-30.48170548 31.29014212 -31.74228955 31.72756324 -34.1875 34.3125 C-35.66745177 36.50691124 -36.92754832 38.58698372 -38 41 C-38.33 41 -38.66 41 -39 41 C-38.26807805 29.47222931 -34.01513409 21.34736762 -26 13 C-19.52274935 7.46801976 -8.861243 0 0 0 Z " fill="#ABABAB" transform="translate(182,128)"/>
<path d="M0 0 C14.23285813 2.33325543 25.36226737 10.48587906 33.9375 21.9375 C37.21483958 26.90387039 40.73194013 33.17038469 39.5625 39.2890625 C39.2840625 40.13597656 39.2840625 40.13597656 39 41 C38.62488281 40.36191406 38.24976563 39.72382813 37.86328125 39.06640625 C37.35152344 38.24011719 36.83976562 37.41382813 36.3125 36.5625 C35.81363281 35.73878906 35.31476563 34.91507813 34.80078125 34.06640625 C32.61900552 31.56280677 31.24519666 31.30406442 28 31 C26.24499739 34.51000522 26.90021734 38.31606545 28 42 C31.60602917 44.70452188 34.53970593 45.39355536 39 45 C39 45.66 39 46.32 39 47 C35.27533151 48.86233425 31.05504687 48.57130829 27 48 C23.87421857 46.3279253 21.60718825 44.2143765 20 41 C17.26365805 45.10451292 17.51599244 48.18226318 18 53 C19.431591 59.67727483 22.07565585 65.85442397 25 72 C19.0080974 70.00269913 14.750149 62.15135864 11.74609375 56.7421875 C9.47556915 51.32364086 8.87216535 45.55133648 10.65625 39.93359375 C13.54574229 33.56923789 18.19202254 27.87198497 24 24 C23.96219702 21.62766389 23.96219702 21.62766389 23 19 C20.04150073 16.66585353 20.04150073 16.66585353 17 15 C16.67 18.3 16.34 21.6 16 25 C14.10089146 22.1513372 13.31825368 20.03910343 12.3125 16.8125 C10.27999697 11.04355342 7.31873284 7.248591 3 3 C2.43410156 2.4328125 1.86820312 1.865625 1.28515625 1.28125 C0.86105469 0.8584375 0.43695313 0.435625 0 0 Z " fill="#ACACAC" transform="translate(74,128)"/>
<path d="M0 0 C0.66 0 1.32 0 2 0 C3.76483479 10.90774559 5.17458853 21.85179482 6.5625 32.8125 C6.78565536 34.56447248 7.00896178 36.31642573 7.23242188 38.06835938 C8.36455243 46.95325437 8.36455243 46.95325437 8.7257843 49.87117004 C8.91322486 51.32633503 9.11609224 52.779574 9.3321991 54.23075867 C10.01587861 58.97747101 9.96472331 61.20052602 7.1875 65.1875 C5.00618867 68.39470122 3.33022434 71.34674973 2 75 C-1.03801482 73.48099259 -1.61416491 71.01766132 -3.0625 68 C-4.660185 64.25431146 -4.660185 64.25431146 -7 61 C-6.83248019 50.64456582 -4.89294774 40.18844612 -3.5 29.9375 C-1.45156467 15.00250553 -1.45156467 15.00250553 0 0 Z " fill="#D0D0D0" transform="translate(127,34)"/>
<path d="M0 0 C1.2065625 0.0309375 1.2065625 0.0309375 2.4375 0.0625 C4.38898399 12.02394893 5.90012266 24.04230425 7.4375 36.0625 C7.7675 35.4025 8.0975 34.7425 8.4375 34.0625 C9.9225 34.5575 9.9225 34.5575 11.4375 35.0625 C10.94830078 36.28646484 10.94830078 36.28646484 10.44921875 37.53515625 C9.2641694 41.6668148 9.17835479 45.23522454 9.25 49.5 C9.2509668 50.58764648 9.2509668 50.58764648 9.25195312 51.69726562 C9.28045188 55.22161107 9.49758986 58.41692225 10.08984375 61.91015625 C10.4375 65.0625 10.4375 65.0625 8.1875 68.0625 C7.72472656 68.5575 7.26195312 69.0525 6.78515625 69.5625 C1.00609083 75.99485108 2.13389482 83.95511725 2.4375 92.0625 C2.55867187 91.42441406 2.67984375 90.78632812 2.8046875 90.12890625 C2.97226563 89.30261719 3.13984375 88.47632812 3.3125 87.625 C3.47492188 86.80128906 3.63734375 85.97757812 3.8046875 85.12890625 C4.11792969 84.10603516 4.11792969 84.10603516 4.4375 83.0625 C5.4275 82.5675 5.4275 82.5675 6.4375 82.0625 C8.0875 83.7125 9.7375 85.3625 11.4375 87.0625 C9.99863295 91.14053252 8.02065089 94.36861971 5.5 97.875 C4.81035156 98.85082031 4.12070313 99.82664062 3.41015625 100.83203125 C2.75917969 101.56808594 2.10820312 102.30414063 1.4375 103.0625 C-1.5625 103.0625 -1.5625 103.0625 -3.02734375 101.77734375 C-6.37531984 97.73668296 -9.38998832 93.86012997 -11.5625 89.0625 C-10.70601054 85.20829741 -8.87684169 84.54825627 -5.5625 82.0625 C-4.5725 86.0225 -3.5825 89.9825 -2.5625 94.0625 C-2.13032435 82.66586813 -2.76753107 75.48777949 -9.5625 66.0625 C-10.2225 65.0725 -10.8825 64.0825 -11.5625 63.0625 C-11.07953755 61.5101207 -10.59215587 59.95901466 -10.0859375 58.4140625 C-8.30885048 50.43043274 -9.08868174 41.79318207 -11.5625 34.0625 C-10.5725 34.0625 -9.5825 34.0625 -8.5625 34.0625 C-8.2325 34.7225 -7.9025 35.3825 -7.5625 36.0625 C-7.44656494 35.00748291 -7.33062988 33.95246582 -7.21118164 32.86547852 C-6.7813365 28.96442896 -6.34577316 25.06403578 -5.90844727 21.16381836 C-5.71970181 19.4732378 -5.53252351 17.78248154 -5.34692383 16.09155273 C-5.08042173 13.66602831 -4.80835494 11.24118434 -4.53515625 8.81640625 C-4.45282242 8.05598526 -4.37048859 7.29556427 -4.28565979 6.51210022 C-3.55193414 0.08663254 -3.55193414 0.08663254 0 0 Z M-1.5625 1.0625 C-1.70349121 2.26148926 -1.84448242 3.46047852 -1.98974609 4.69580078 C-2.52104733 9.21000436 -3.05463829 13.72393501 -3.58886719 18.23779297 C-3.81831805 20.17912725 -4.04717522 22.12053181 -4.27539062 24.06201172 C-5.46236082 34.1564644 -6.65911795 44.23562208 -8.21728516 54.28076172 C-8.80581321 59.0231158 -9.01672089 62.00906633 -6.25 66 C-4.07826083 69.25143904 -2.24348759 72.52357876 -0.5625 76.0625 C1.86228005 73.63771995 2.98319748 71.19959971 4.5 68.125 C5.02722656 67.06410156 5.55445313 66.00320312 6.09765625 64.91015625 C8.37990896 60.05953751 8.32068466 56.93943831 7.51171875 51.78125 C7.40461075 51.05917862 7.29750275 50.33710724 7.18714905 49.59315491 C6.95760715 48.04817293 6.72508388 46.50363152 6.48986816 44.95950317 C5.88318661 40.97390579 5.29810668 36.98517632 4.71484375 32.99609375 C4.60053009 32.2162059 4.48621643 31.43631805 4.36843872 30.63279724 C3.39243728 23.9035453 2.60353109 17.16605146 1.9831543 10.39453125 C1.6879122 7.19988025 1.35212183 4.14540634 0.4375 1.0625 C-0.2225 1.0625 -0.8825 1.0625 -1.5625 1.0625 Z M-7.5625 88.0625 C-7.5625 91.0625 -7.5625 91.0625 -7.5625 91.0625 Z M6.4375 89.0625 C6.1075 90.3825 5.7775 91.7025 5.4375 93.0625 C6.0975 91.7425 6.7575 90.4225 7.4375 89.0625 C7.1075 89.0625 6.7775 89.0625 6.4375 89.0625 Z M-6.5625 91.0625 C-5.5625 93.0625 -5.5625 93.0625 -5.5625 93.0625 Z M-2.5625 98.0625 C-1.5725 99.0525 -0.5825 100.0425 0.4375 101.0625 C0.7675 100.0725 1.0975 99.0825 1.4375 98.0625 C0.1175 98.0625 -1.2025 98.0625 -2.5625 98.0625 Z " fill="#040404" transform="translate(128.5625,32.9375)"/>
<path d="M0 0 C3.20645802 1.27240397 6.00665077 3.01538315 8.96875 4.78125 C8.63101563 5.39871094 8.29328125 6.01617187 7.9453125 6.65234375 C2.13623198 17.68288103 0.30278342 27.68559932 3.8984375 39.953125 C4.85624704 42.59584038 5.88463665 45.18841223 6.96875 47.78125 C7.29875 48.77125 7.62875 49.76125 7.96875 50.78125 C6.859375 52.46484375 6.859375 52.46484375 5.21875 54.21875 C2.97763997 56.65024559 0.91912919 59.10829057 -1.03125 61.78125 C-2.17872465 60.15740858 -3.3241791 58.53213944 -4.46875 56.90625 C-5.42587891 55.54886719 -5.42587891 55.54886719 -6.40234375 54.1640625 C-8.03125 51.78125 -8.03125 51.78125 -9.03125 49.78125 C-8.2890625 47.5390625 -8.2890625 47.5390625 -7.15625 44.90625 C-3.39934529 36.1051096 -2.36589789 26.04013259 -4.85546875 16.68359375 C-5.81646178 14.31504959 -6.87699009 12.06028142 -8.03125 9.78125 C-8.71082551 8.11980504 -9.38078045 6.45430457 -10.03125 4.78125 C-8.79180724 3.91183506 -7.53917941 3.06119543 -6.28125 2.21875 C-5.58515625 1.74308594 -4.8890625 1.26742187 -4.171875 0.77734375 C-2.03125 -0.21875 -2.03125 -0.21875 0 0 Z M-1.03125 3.78125 C-3.90516821 4.95399994 -3.90516821 4.95399994 -6.03125 6.78125 C-5.83789062 7.34972656 -5.64453125 7.91820312 -5.4453125 8.50390625 C-3.84988577 13.23489938 -2.36224414 17.96919425 -1.03125 22.78125 C-0.70125 22.78125 -0.37125 22.78125 -0.03125 22.78125 C0.38447266 21.42580078 0.38447266 21.42580078 0.80859375 20.04296875 C1.17082031 18.86347656 1.53304687 17.68398437 1.90625 16.46875 C2.26589844 15.29699219 2.62554687 14.12523437 2.99609375 12.91796875 C3.63247279 10.86571023 4.28928379 8.81964863 4.96875 6.78125 C2.27003645 4.9727905 2.27003645 4.9727905 -1.03125 3.78125 Z M-1.03125 34.78125 C-1.73094682 37.02748699 -2.41560043 39.27841414 -3.09375 41.53125 C-3.47660156 42.78421875 -3.85945313 44.0371875 -4.25390625 45.328125 C-5.13275526 49.1869467 -5.13275526 49.1869467 -4.03125 52.78125 C-2.75062515 54.4887498 -1.4239789 56.16388741 -0.03125 57.78125 C3.1193676 54.04788653 3.1193676 54.04788653 3.6875 49.46875 C3.4503125 48.581875 3.213125 47.695 2.96875 46.78125 C2.59556641 45.24017578 2.59556641 45.24017578 2.21484375 43.66796875 C1.94800781 42.61222656 1.68117187 41.55648437 1.40625 40.46875 C1.13683594 39.40011719 0.86742187 38.33148438 0.58984375 37.23046875 C0.38488281 36.42222656 0.17992187 35.61398438 -0.03125 34.78125 C-0.36125 34.78125 -0.69125 34.78125 -1.03125 34.78125 Z " fill="#020202" transform="translate(129.03125,142.21875)"/>
<path d="M0 0 C0.99 0 1.98 0 3 0 C3.66 4.62 4.32 9.24 5 14 C5.33 13.34 5.66 12.68 6 12 C6.99 12.33 7.98 12.66 9 13 C8.67386719 13.81597656 8.34773437 14.63195312 8.01171875 15.47265625 C6.8266694 19.6043148 6.74085479 23.17272454 6.8125 27.4375 C6.8134668 28.52514648 6.8134668 28.52514648 6.81445312 29.63476562 C6.84291518 33.15457313 7.05833838 36.34030721 7.65625 39.828125 C8 43 8 43 7.07421875 44.92578125 C5.04947917 46.95052083 3.02473958 48.97526042 1 51 C0.34 51 -0.32 51 -1 51 C-0.01721658 47.56025804 0.8622347 45.17146169 3.12207031 42.35888672 C5.66384789 37.81263399 5.08858752 34.88899903 4.296875 29.8828125 C4.12191498 28.5970784 4.12191498 28.5970784 3.94342041 27.28536987 C3.56762919 24.56161351 3.15937298 21.84389079 2.75 19.125 C2.48872578 17.27374101 2.22958722 15.42217927 1.97265625 13.5703125 C1.33978704 9.0429949 0.67777223 4.5208041 0 0 Z " fill="#070707" transform="translate(131,55)"/>
<path d="M0 0 C0.33 0 0.66 0 1 0 C1.06058594 0.78503906 1.12117187 1.57007812 1.18359375 2.37890625 C1.26738281 3.42949219 1.35117188 4.48007813 1.4375 5.5625 C1.52128906 6.65949219 1.60507813 7.75648437 1.69140625 8.88671875 C1.95045873 12.15024751 1.95045873 12.15024751 2.875 15.875 C3.01279381 19.31984515 2.76109438 19.77675555 0.6875 22.3125 C-0.875 23.875 -2.4375 25.4375 -4 27 C-4.66 27 -5.32 27 -6 27 C-4.99951774 23.49831209 -4.0678566 21.0872442 -1.8125 18.1875 C0.40727931 14.28375018 0.02057932 12.46849878 -0.703125 8.19140625 C-1.09257089 5.31668066 -0.64828173 2.80922083 0 0 Z " fill="#131313" transform="translate(136,79)"/>
<path d="M0 0 C-2.55439402 1.37174861 -5.11664431 2.72225408 -7.6875 4.0625 C-8.40873047 4.45244141 -9.12996094 4.84238281 -9.87304688 5.24414062 C-15.3241843 8.05682797 -15.3241843 8.05682797 -19.01953125 7.74609375 C-19.67308594 7.49988281 -20.32664063 7.25367187 -21 7 C-17.74397004 4.2866417 -14.43846872 2.78564147 -10.5 1.25 C-9.3759375 0.80140625 -8.251875 0.3528125 -7.09375 -0.109375 C-3.94716516 -1.01521003 -2.98951339 -0.91947736 0 0 Z " fill="#C1C1C1" transform="translate(187,119)"/>
<path d="M0 0 C6.18160604 0.53753096 11.326858 2.54582388 17 5 C16.01 6.485 16.01 6.485 15 8 C10.05 5.69 5.1 3.38 0 1 C0 0.67 0 0.34 0 0 Z " fill="#C9C9C9" transform="translate(69,118)"/>
<path d="M0 0 C0 3 0 3 -2.40625 5.69921875 C-3.4299968 6.70302243 -4.4616054 7.69885649 -5.5 8.6875 C-6.02464844 9.19861328 -6.54929687 9.70972656 -7.08984375 10.23632812 C-8.38660904 11.49772708 -9.69246117 12.74977212 -11 14 C-11 10.30159372 -10.17133056 9.68584567 -7.75 7 C-7.14671875 6.319375 -6.5434375 5.63875 -5.921875 4.9375 C-4.06233388 3.06284066 -2.15205789 1.52358081 0 0 Z " fill="#BDBDBD" transform="translate(99,151)"/>
<path d="M0 0 C1 3 1 3 0.14453125 5.41015625 C-0.51482422 6.72306641 -0.51482422 6.72306641 -1.1875 8.0625 C-1.82751953 9.37927734 -1.82751953 9.37927734 -2.48046875 10.72265625 C-4.12313541 13.18454484 -5.27052624 13.96548853 -8 15 C-6.62712658 11.30123909 -4.93644547 8.0485524 -2.875 4.6875 C-2.33617187 3.80449219 -1.79734375 2.92148437 -1.2421875 2.01171875 C-0.83226562 1.34785156 -0.42234375 0.68398438 0 0 Z " fill="#D5D5D5" transform="translate(34,45)"/>
<path d="M0 0 C0.66 0.33 1.32 0.66 2 1 C-1.96 4.96 -5.92 8.92 -10 13 C-10 8.83248505 -7.76127698 6.85829482 -5 4 C-3.36927384 2.62294236 -1.7133562 1.27277889 0 0 Z " fill="#C4C4C4" transform="translate(161,137)"/>
<path d="M0 0 C0.66 0 1.32 0 2 0 C3.5078125 2.1171875 3.5078125 2.1171875 5.125 4.875 C5.66382813 5.77992187 6.20265625 6.68484375 6.7578125 7.6171875 C8 10 8 10 8 12 C7.01 12 6.02 12 5 12 C3.35 8.04 1.7 4.08 0 0 Z " fill="#D5D5D5" transform="translate(221,45)"/>
<path d="M0 0 C-8.261959 4.59225513 -8.261959 4.59225513 -13 4 C-11.72807637 1.45615274 -10.80051531 1.30631844 -8.1875 0.3125 C-7.50042969 0.04050781 -6.81335938 -0.23148437 -6.10546875 -0.51171875 C-3.70623504 -1.06812731 -2.3105636 -0.77364938 0 0 Z " fill="#CDCDCD" transform="translate(187,119)"/>
<path d="M0 0 C0.66 0.33 1.32 0.66 2 1 C-0.53363068 5.22271781 -2.56620325 7.78310162 -7 10 C-5.6062718 5.56541027 -3.39417765 3.12621626 0 0 Z " fill="#CACACA" transform="translate(18,100)"/>
<path d="M0 0 C9.59453303 1.74259681 9.59453303 1.74259681 13 5 C4.80743982 4.64989059 4.80743982 4.64989059 1.4375 1.9375 C0.963125 1.298125 0.48875 0.65875 0 0 Z " fill="#C9C9C9" transform="translate(74,128)"/>
<path d="M0 0 C0 0.66 0 1.32 0 2 C-6.4 4.21538462 -6.4 4.21538462 -9.4375 3.125 C-9.953125 2.75375 -10.46875 2.3825 -11 2 C-7.17679443 0.57741188 -4.08718695 -0.24042276 0 0 Z " fill="#BFBFBF" transform="translate(158,183)"/>
<path d="M0 0 C0.99 0.33 1.98 0.66 3 1 C5.63804589 0.60602665 5.63804589 0.60602665 8 0 C8.33 0.66 8.66 1.32 9 2 C6.1875 3.125 6.1875 3.125 3 4 C2.01 3.34 1.02 2.68 0 2 C0 1.34 0 0.68 0 0 Z " fill="#B9B9B9" transform="translate(115,143)"/>
<path d="M0 0 C0 3 0 3 -2.5 5.6875 C-3.325 6.450625 -4.15 7.21375 -5 8 C-5.66 7.67 -6.32 7.34 -7 7 C-4.69 4.69 -2.38 2.38 0 0 Z " fill="#090909" transform="translate(196,133)"/>
</svg>
